<svg width="10" height="13" viewBox="0 0 10 13" fill="none" xmlns="http://www.w3.org/2000/svg">
<path opacity="0.3" d="M5.00004 7C5.36671 7 5.66671 6.7 5.66671 6.33333V2.33333C5.66671 1.96666 5.36671 1.66666 5.00004 1.66666C4.63337 1.66666 4.33337 1.96666 4.33337 2.33333V6.33333C4.33337 6.7 4.63337 7 5.00004 7Z" fill="white"/>
<path d="M5 8.33333C6.10667 8.33333 7 7.44 7 6.33333V2.33333C7 1.22667 6.10667 0.333332 5 0.333332C3.89333 0.333332 3 1.22667 3 2.33333V6.33333C3 7.44 3.89333 8.33333 5 8.33333ZM4.33333 2.33333C4.33333 1.96667 4.63333 1.66667 5 1.66667C5.36667 1.66667 5.66667 1.96667 5.66667 2.33333V6.33333C5.66667 6.7 5.36667 7 5 7C4.63333 7 4.33333 6.7 4.33333 6.33333V2.33333Z" fill="white"/>
<path d="M8.33337 6.33333C8.33337 8.17333 6.84004 9.66667 5.00004 9.66667C3.16004 9.66667 1.66671 8.17333 1.66671 6.33333H0.333374C0.333374 8.68667 2.07337 10.62 4.33337 10.9467V13H5.66671V10.9467C7.92671 10.62 9.66671 8.68667 9.66671 6.33333H8.33337Z" fill="white"/>
</svg>
