<svg width="12" height="13" viewBox="0 0 12 13" fill="none" xmlns="http://www.w3.org/2000/svg">
<path d="M5.99996 0.333332C3.33329 0.333332 0.666626 0.666665 0.666626 3V9.33333C0.666626 10.62 1.71329 11.6667 2.99996 11.6667L1.99996 12.6667V13H3.33329L4.66663 11.6667H7.33329L8.66663 13H9.99996V12.6667L8.99996 11.6667C10.2866 11.6667 11.3333 10.62 11.3333 9.33333V3C11.3333 0.666665 8.66663 0.333332 5.99996 0.333332ZM2.99996 10.3333C2.44663 10.3333 1.99996 9.88667 1.99996 9.33333C1.99996 8.78 2.44663 8.33333 2.99996 8.33333C3.55329 8.33333 3.99996 8.78 3.99996 9.33333C3.99996 9.88667 3.55329 10.3333 2.99996 10.3333ZM5.33329 5.66667H1.99996V3H5.33329V5.66667ZM8.99996 10.3333C8.44663 10.3333 7.99996 9.88667 7.99996 9.33333C7.99996 8.78 8.44663 8.33333 8.99996 8.33333C9.55329 8.33333 9.99996 8.78 9.99996 9.33333C9.99996 9.88667 9.55329 10.3333 8.99996 10.3333ZM9.99996 5.66667H6.66663V3H9.99996V5.66667Z" fill="white"/>
</svg>
